<?xml version="1.0" encoding="utf-8"?><svg xmlns="http://www.w3.org/2000/svg" xmlns:xlink="http://www.w3.org/1999/xlink"><symbol fill="none" viewBox="0 0 22 24" id="Charger" xmlns="http://www.w3.org/2000/svg"><path d="M21.08 7.227v-2.1a.706.706 0 00-.706-.707h-3.278a.706.706 0 00-.706.706v2.101a.706.706 0 00-.642.703v3.796a1.57 1.57 0 001.568 1.568h.713v7.52c0 .978-.796 1.774-1.774 1.774H8.538a1.776 1.776 0 01-1.774-1.774v-1.52h1.501c.39 0 .706-.316.706-.706v-2.29h.75a2.12 2.12 0 002.118-2.118V7.778c0-.952-.632-1.76-1.498-2.025v-2.42a.706.706 0 00-.706-.706h-.988V.706a.706.706 0 00-1.412 0v1.92H4.881V.707a.706.706 0 00-1.411 0v1.92h-.988a.706.706 0 00-.706.707v2.42A2.121 2.121 0 00.278 7.778v6.402a2.12 2.12 0 002.118 2.118h.75v2.29c0 .39.315.706.705.706h1.501v1.52A3.19 3.19 0 008.538 24h7.717a3.19 3.19 0 003.186-3.186v-7.52h.713a1.57 1.57 0 001.568-1.568V7.93a.706.706 0 00-.642-.703zM8.929 4.04v1.62H3.188V4.039h5.74zm-7.24 10.14V7.778c0-.389.317-.706.707-.706H9.72c.39 0 .706.317.706.706v6.402c0 .39-.317.706-.706.706H2.396a.707.707 0 01-.706-.706zm2.868 2.118H7.56v1.584H4.557v-1.584zM19.668 5.832v1.392h-1.866V5.832h1.866zm.642 5.894c0 .086-.07.156-.156.156h-2.838a.157.157 0 01-.156-.156v-3.09h3.15v3.09z" fill="#000"/></symbol><symbol fill="none" viewBox="0 0 20 20" id="Cross" xmlns="http://www.w3.org/2000/svg"><path d="M13.556 10l5.777-5.778c.89-.889.89-2.222 0-3L18.89.778c-.889-.89-2.222-.89-3 0L10 6.444 4.222.667c-.889-.89-2.222-.89-3.11 0l-.445.444c-.89.889-.89 2.222 0 3L6.444 10 .667 15.778c-.89.889-.89 2.222 0 3l.444.555c.889.89 2.222.89 3 0L10 13.556l5.778 5.777c.889.89 2.222.89 3 0l.444-.444c.89-.889.89-2.222 0-3L13.556 10z" fill="#fff"/></symbol><symbol fill="none" viewBox="0 0 30 30" id="Frame" xmlns="http://www.w3.org/2000/svg"><path d="M17.871 15A2.868 2.868 0 0115 17.871 2.868 2.868 0 0112.129 15 2.868 2.868 0 0115 12.129 2.868 2.868 0 0117.871 15z" fill="#B3B3B3"/><path d="M21.715 9.92a2.66 2.66 0 00-.645-.99 2.66 2.66 0 00-.99-.645c-.305-.117-.762-.258-1.6-.299-.908-.04-1.183-.052-3.48-.052-2.303 0-2.572.005-3.48.052-.838.041-1.295.182-1.6.3a2.66 2.66 0 00-.99.644 2.66 2.66 0 00-.645.99c-.117.305-.258.762-.299 1.6-.04.908-.052 1.177-.052 3.48 0 2.297.011 2.572.052 3.48.041.838.176 1.295.3 1.6.14.375.357.715.644.99.275.287.615.504.99.645.305.117.762.258 1.6.299.908.04 1.177.052 3.48.052s2.572-.005 3.48-.052c.838-.041 1.295-.176 1.6-.3a2.844 2.844 0 001.635-1.634c.117-.305.258-.762.299-1.6.04-.908.052-1.183.052-3.48 0-2.303-.005-2.572-.052-3.48-.041-.838-.182-1.295-.3-1.6zM15 19.424a4.424 4.424 0 110-8.847 4.424 4.424 0 010 8.847zm4.6-7.986a1.033 1.033 0 01-1.032-1.032 1.033 1.033 0 012.063 0c0 .569-.463 1.031-1.031 1.031z" fill="#B3B3B3"/><path d="M15 0C6.715 0 0 6.715 0 15s6.715 15 15 15 15-6.715 15-15S23.285 0 15 0zm8.56 18.55c-.04.915-.187 1.542-.398 2.093a4.392 4.392 0 01-2.52 2.52c-.544.21-1.171.357-2.091.398-.92.04-1.213.052-3.551.052s-2.63-.011-3.55-.052c-.915-.041-1.542-.188-2.093-.399a4.193 4.193 0 01-1.523-.996c-.44-.428-.78-.95-.996-1.523-.211-.545-.358-1.172-.399-2.092-.04-.92-.052-1.213-.052-3.551s.011-2.63.052-3.55c.041-.915.188-1.542.399-2.093a4.194 4.194 0 01.996-1.523c.428-.44.95-.78 1.523-.996.551-.211 1.172-.358 2.092-.399.92-.04 1.213-.052 3.551-.052s2.63.011 3.55.052c.915.041 1.542.188 2.093.399a4.193 4.193 0 011.523.996c.44.428.78.95.996 1.523.211.551.358 1.172.399 2.092.04.92.052 1.213.052 3.551s-.011 2.63-.052 3.55z" fill="#B3B3B3"/></symbol><symbol fill="none" viewBox="0 0 33 33" id="Rectangle" xmlns="http://www.w3.org/2000/svg"><path fill="#292929" d="M11.675 0l20.969 11.675-11.676 20.969L0 20.968z"/></symbol><symbol fill="none" viewBox="0 0 14 24" id="bluetooth" xmlns="http://www.w3.org/2000/svg"><path d="M13.205 17.521L8.164 12l5.041-5.52a.86.86 0 00-.089-1.244L6.987.196a.858.858 0 00-1.405.663v8.315L2.064 5.32A.86.86 0 00.795 6.48l4.787 5.242v.556L.795 17.521a.859.859 0 101.269 1.159l3.518-3.853v8.314a.86.86 0 001.405.664l6.13-5.04a.86.86 0 00.088-1.244zM7.301 2.678l4.025 3.31-4.025 4.409V2.678zm0 18.644v-7.718l4.025 4.408-4.025 3.31z" fill="#000"/></symbol><symbol fill="none" viewBox="0 0 91 91" id="click" xmlns="http://www.w3.org/2000/svg"><rect width="91" height="91" rx="4" fill="#9A9A9A"/><g clip-path="url(#fclip0_2_30)" fill="#fff"><path d="M46 35.111c-6.004 0-10.889 4.885-10.889 10.889S39.996 56.889 46 56.889 56.889 52.004 56.889 46c0-6.005-4.885-10.889-10.889-10.889zm0 20.222c-5.147 0-9.333-4.186-9.333-9.333s4.186-9.333 9.333-9.333 9.333 4.186 9.333 9.333-4.186 9.333-9.333 9.333z"/><path d="M64.838 41.333h-1.57c-.4-1.487-.99-2.91-1.758-4.244l1.11-1.11a2.15 2.15 0 00.633-1.528c0-.578-.225-1.121-.633-1.53l-3.542-3.541c-.816-.816-2.24-.818-3.059 0l-1.109 1.109a17.772 17.772 0 00-4.243-1.757v-1.57c0-1.192-.97-2.162-2.163-2.162h-5.008c-1.193 0-2.163.97-2.163 2.162v1.57c-1.486.4-2.909.99-4.244 1.758l-1.11-1.11c-.817-.818-2.241-.816-3.058 0l-3.541 3.542a2.15 2.15 0 00-.633 1.53c0 .577.224 1.12.633 1.529l1.109 1.109a17.705 17.705 0 00-1.757 4.243h-1.57c-1.192 0-2.162.97-2.162 2.163v5.008c0 1.193.97 2.163 2.162 2.163h1.57c.4 1.486.99 2.909 1.758 4.244l-1.11 1.11a2.15 2.15 0 00-.633 1.528c0 .578.225 1.121.633 1.53l3.542 3.541c.816.818 2.241.819 3.059 0l1.109-1.109a17.798 17.798 0 004.244 1.758v1.57c0 1.192.97 2.162 2.162 2.162h5.008c1.193 0 2.163-.97 2.163-2.162v-1.57c1.486-.4 2.909-.99 4.244-1.758l1.11 1.11c.817.818 2.24.816 3.058 0l3.541-3.542a2.15 2.15 0 00.633-1.53 2.15 2.15 0 00-.633-1.529l-1.109-1.109a17.798 17.798 0 001.758-4.244h1.57c1.192 0 2.162-.97 2.162-2.163v-5.008a2.166 2.166 0 00-2.163-2.163zm.606 7.171a.607.607 0 01-.606.607h-2.794l-.14.601a16.245 16.245 0 01-2.032 4.909l-.327.524 1.975 1.975a.607.607 0 010 .859l-3.541 3.54a.607.607 0 01-.86 0l-1.974-1.974-.524.327a16.208 16.208 0 01-4.909 2.032l-.6.14v2.794a.607.607 0 01-.608.606h-5.008a.607.607 0 01-.607-.606v-2.794l-.601-.14a16.245 16.245 0 01-4.909-2.032l-.524-.327-1.975 1.975a.607.607 0 01-.859 0l-3.54-3.541a.607.607 0 010-.86l1.974-1.974-.327-.524a16.208 16.208 0 01-2.032-4.909l-.14-.6h-2.794a.607.607 0 01-.606-.608v-5.008c0-.335.272-.607.606-.607h2.794l.14-.601a16.228 16.228 0 012.032-4.909l.327-.524-1.975-1.975a.607.607 0 010-.859l3.541-3.54a.607.607 0 01.86 0l1.974 1.974.524-.327a16.208 16.208 0 014.909-2.032l.6-.14v-2.794c0-.334.273-.606.608-.606h5.008c.335 0 .607.272.607.606v2.794l.601.14a16.245 16.245 0 014.909 2.032l.524.327 1.975-1.975a.607.607 0 01.859 0l3.54 3.541a.607.607 0 010 .86l-1.974 1.974.327.524a16.19 16.19 0 012.032 4.909l.14.6h2.794c.334 0 .606.273.606.608v5.008z"/><path d="M46 38.222c-4.289 0-7.778 3.49-7.778 7.778 0 4.289 3.49 7.778 7.778 7.778 4.289 0 7.778-3.49 7.778-7.778 0-4.289-3.49-7.778-7.778-7.778zm0 14A6.23 6.23 0 0139.778 46 6.23 6.23 0 0146 39.778 6.23 6.23 0 0152.222 46 6.23 6.23 0 0146 52.222z"/></g><defs><clipPath id="fclip0_2_30"><path fill="#fff" transform="translate(25 25)" d="M0 0h42v42H0z"/></clipPath></defs></symbol><symbol fill="none" viewBox="0 0 30 30" id="fb" xmlns="http://www.w3.org/2000/svg"><path d="M30 15c0-8.285-6.715-15-15-15S0 6.715 0 15s6.715 15 15 15c.088 0 .176 0 .264-.006V18.322H12.04v-3.756h3.223v-2.765c0-3.205 1.957-4.951 4.816-4.951 1.371 0 2.549.1 2.889.146v3.352H21c-1.553 0-1.857.738-1.857 1.822v2.39h3.72l-.486 3.756h-3.234V29.42C25.413 27.62 30 21.85 30 15z" fill="#000"/></symbol><symbol fill="none" viewBox="0 0 40 40" id="logo" xmlns="http://www.w3.org/2000/svg"><path d="M20 26c3.3 0 6-2.7 6-6s-2.7-6-6-6-6 2.7-6 6 2.7 6 6 6zm0-26c-2 0-4.1.3-6 .9V12c4.4-3.3 10.7-2.4 14 2 3.3 4.4 2.4 10.7-2 14-4.4 3.3-10.7 2.4-14-2-1.3-1.7-2-3.8-2-6V2.7C.4 8.2-2.8 20.4 2.7 30c5.5 9.6 17.7 12.8 27.3 7.3 9.6-5.5 12.8-17.7 7.3-27.3C33.8 3.8 27.2 0 20 0z" fill="#E01F3D"/></symbol><symbol fill="none" viewBox="0 0 15 29" id="next" xmlns="http://www.w3.org/2000/svg"><path d="M1 1l12.086 12.086a2 2 0 010 2.828L1 28" stroke="#000" stroke-width="2" stroke-linecap="round"/></symbol><symbol fill="none" viewBox="0 0 12 12" id="phone" xmlns="http://www.w3.org/2000/svg"><path d="M11.974 9.298c-.034-.102-.25-.253-.648-.452a19.972 19.972 0 00-.46-.256 32.7 32.7 0 01-.997-.562 11.171 11.171 0 00-.213-.15 2.395 2.395 0 00-.303-.183.558.558 0 00-.242-.06c-.114.001-.256.082-.426.244a4.15 4.15 0 00-.469.528c-.142.19-.293.367-.452.529-.159.162-.29.243-.392.243a.58.58 0 01-.191-.043 1.989 1.989 0 01-.175-.072c-.04-.02-.108-.06-.205-.12a5.297 5.297 0 00-.162-.098 8.956 8.956 0 01-2.002-1.483A8.951 8.951 0 013.154 5.36a4.945 4.945 0 00-.098-.162c-.06-.096-.1-.164-.12-.204a1.848 1.848 0 01-.072-.175.577.577 0 01-.043-.192c0-.102.081-.232.243-.392a4.96 4.96 0 01.529-.451c.19-.142.366-.298.528-.469.162-.17.243-.312.243-.426 0-.08-.02-.16-.06-.243a2.37 2.37 0 00-.183-.302l-.15-.214a18.685 18.685 0 01-.263-.455c-.091-.162-.19-.343-.299-.542a20.244 20.244 0 00-.255-.46c-.2-.397-.35-.613-.452-.647A.477.477 0 002.523 0c-.153 0-.354.028-.6.085a3.375 3.375 0 00-.585.18C1.054.382.753.73.435 1.303.145 1.838 0 2.366 0 2.889a3.291 3.291 0 00.137.938c.05.181.092.316.123.404.031.088.09.246.175.473.085.228.136.367.153.418a7.72 7.72 0 00.708 1.491c.448.728 1.06 1.48 1.836 2.255.776.775 1.527 1.387 2.254 1.836.438.273.935.509 1.492.708.051.017.19.068.417.153.228.085.385.144.473.175.088.031.223.072.405.124a3.272 3.272 0 00.938.136c.522 0 1.05-.145 1.585-.435.574-.318.92-.619 1.04-.903a3.35 3.35 0 00.178-.584c.057-.247.086-.447.086-.6 0-.08-.009-.14-.026-.18z" fill="#292929"/></symbol><symbol fill="none" viewBox="0 0 49 71" id="play-icon" xmlns="http://www.w3.org/2000/svg"><path d="M46.877 39.77L9.257 69.741c-3.597 2.852-8.888.29-8.888-4.3V5.497C.369.91 5.66-1.655 9.257 1.198l37.62 29.972c2.729 2.191 2.729 6.408 0 8.6z" fill="#fff"/></symbol><symbol fill="none" viewBox="0 0 15 29" id="prev" xmlns="http://www.w3.org/2000/svg"><path d="M14 28L1.914 15.914a2 2 0 010-2.828L14 1" stroke="#000" stroke-width="2" stroke-linecap="round"/></symbol><symbol fill="none" viewBox="0 0 9 7" id="red-arrow" xmlns="http://www.w3.org/2000/svg"><path d="M4.5 7L.603.25h7.794L4.5 7z" fill="#E01F3D"/></symbol><symbol fill="none" viewBox="0 0 30 30" id="tg" xmlns="http://www.w3.org/2000/svg"><path d="M15 30c8.285 0 15-6.715 15-15S23.285 0 15 0 0 6.715 0 15s6.715 15 15 15zM6.861 14.678L21.328 9.1c.674-.24 1.26.164 1.037 1.177l-2.46 11.602c-.182.82-.675 1.025-1.354.633l-3.75-2.766-1.81 1.74c-.2.2-.37.37-.757.37l.264-3.815 6.955-6.275c.305-.264-.07-.416-.469-.153l-8.59 5.409-3.703-1.155c-.802-.258-.82-.803.17-1.19z" fill="#B3B3B3"/></symbol><symbol fill="none" viewBox="0 0 30 30" id="vk" xmlns="http://www.w3.org/2000/svg"><path d="M15 0C6.718 0 0 6.718 0 15s6.718 15 15 15 15-6.718 15-15S23.282 0 15 0zm7.607 16.626c.706.675 1.442 1.319 2.056 2.086.276.337.552.675.736 1.073.276.552.03 1.166-.46 1.197H21.87c-.797.06-1.41-.246-1.963-.798-.43-.43-.828-.89-1.227-1.35a2.115 2.115 0 00-.552-.49c-.43-.277-.798-.184-1.012.245-.246.46-.307.95-.338 1.442-.03.736-.245.92-.982.95-1.564.062-3.036-.153-4.386-.95-1.196-.706-2.147-1.657-2.945-2.761-1.595-2.147-2.791-4.51-3.895-6.933-.246-.552-.062-.828.552-.858a48.592 48.592 0 013.006 0c.399 0 .675.245.828.613.552 1.319 1.196 2.607 2.025 3.773.214.307.46.614.767.859.368.245.613.153.797-.245a3.39 3.39 0 00.184-.798c.092-.92.092-1.84-.061-2.76-.092-.614-.4-.982-.982-1.105-.307-.061-.245-.153-.123-.337.246-.277.491-.46.951-.46h3.467c.552.122.674.337.736.889v3.865c0 .215.092.859.49.982.307.092.522-.154.706-.338.828-.89 1.411-1.932 1.963-3.006.246-.49.43-.982.645-1.472.153-.368.368-.553.797-.553h3.344c.092 0 .184 0 .306.031.552.092.706.338.552.89-.276.859-.797 1.595-1.319 2.3-.552.767-1.165 1.503-1.717 2.301-.552.736-.522 1.104.122 1.718z" fill="#B3B3B3"/></symbol></svg>